<svg id="Warstwa_1" data-name="Warstwa 1" xmlns="http://www.w3.org/2000/svg" viewBox="0 0 245.61 372.13"><path d="M321.81,211.83c.27-2.39.43-4.8.84-7.16a30.26,30.26,0,0,1,1.51-5.54c1.71-4.49,5.14-7.42,9.22-9.74a21.41,21.41,0,0,1,13-2.43,27.44,27.44,0,0,1,19.82,10.9,25.73,25.73,0,0,1,4.93,11.6,19.24,19.24,0,0,1-2.48,13.17A26.87,26.87,0,0,1,354,235.11a11.28,11.28,0,0,1-2.79.69,28.88,28.88,0,0,1-10-.71,35,35,0,0,1-10.28-4.55,23.31,23.31,0,0,1-7.17-7.32,13.75,13.75,0,0,1-2.05-8c0-1.12.11-2.24.17-3.36Z" transform="translate(-286.71 -95.26)"/><path d="M412.88,130.32a39.46,39.46,0,0,1,12.23,2.24c4.74,1.75,8.95,4.25,12,8.42a15.42,15.42,0,0,1,3.06,9.66,37.6,37.6,0,0,1-1.75,11.11c-2.39,7.19-6.53,13-13.6,16.25a24.46,24.46,0,0,1-11.19,2.28A21,21,0,0,1,401.84,176a27.7,27.7,0,0,1-8-8.85,21.07,21.07,0,0,1-2.31-14.63,31.85,31.85,0,0,1,7.05-15.29,30.5,30.5,0,0,1,3.21-3.22C406.17,130.29,409.14,130.16,412.88,130.32Z" transform="translate(-286.71 -95.26)"/><path d="M476.39,247.27c-8.44-.36-14.86-2.3-20.23-6.94a23.67,23.67,0,0,1-7.81-12.12,37.56,37.56,0,0,1-1-4.94,18.49,18.49,0,0,1,3.1-12.33A29.25,29.25,0,0,1,462,200.41a19.8,19.8,0,0,1,12.82-1.88,29.89,29.89,0,0,1,17.79,10.13,21.71,21.71,0,0,1,4.7,9.34,11.79,11.79,0,0,1,0,5.93c-.49,1.85-.71,3.77-1.12,5.65a29.48,29.48,0,0,1-2.49,7.23,17.38,17.38,0,0,1-7,7.08C483.3,246,478.88,247.44,476.39,247.27Z" transform="translate(-286.71 -95.26)"/><path d="M378.26,281.81a32.65,32.65,0,0,1,4.91-17.17,23.74,23.74,0,0,1,12.2-10c5.5-1.94,11.12-2.42,16.68-.14a23.37,23.37,0,0,1,7.35,4.92,27.43,27.43,0,0,1,6.08,8.57,21.28,21.28,0,0,1,1.68,11,30.07,30.07,0,0,1-11.91,21.11,16.2,16.2,0,0,1-11.36,2.86,38,38,0,0,1-14.18-4.24,24.41,24.41,0,0,1-8.07-6.7C379.22,288.83,377.85,285.33,378.26,281.81Z" transform="translate(-286.71 -95.26)"/><path d="M445.27,430.08a32.82,32.82,0,0,1-9.39,0,5.69,5.69,0,0,1-.23-2.54c0-5.76,0-11.53,0-17.3v-46a6.81,6.81,0,0,1,1.42-.35c2.4,0,4.8,0,7.21,0a10.46,10.46,0,0,1,1.29.17l1.34,3.32c.48,1.18,1,2.36,1.47,3.55s.85,2.24,1.29,3.36l1.42,3.57,1.29,3.36c.46,1.2.93,2.39,1.39,3.58s.9,2.23,1.34,3.35.9,2.39,1.38,3.58.93,2.22,1.36,3.34.82,2.43,1.36,3.59.62,2.26,1.59,3.26a3.79,3.79,0,0,0,.32-2.23c0-5.77,0-11.54,0-17.31q0-7.93,0-15.86c0-.78.08-1.56.12-2.29a33.32,33.32,0,0,1,9.77,0c0,.41.12.87.13,1.33.29,9.44.12,62.14-.21,64.51-1.55.71-3.25.27-4.88.34a30.51,30.51,0,0,1-4.86-.1c-1.66-3-2.48-6.29-3.82-9.35s-2.5-6.24-3.74-9.37-2.49-6.24-3.69-9.38-2.32-6.26-3.71-9.23c-.64,0-.64.4-.65.69,0,.8,0,1.6,0,2.4q0,15.63,0,31.25A6,6,0,0,1,445.27,430.08Z" transform="translate(-286.71 -95.26)"/><path d="M308.18,363.93h9.45l3.79,9.57c1.25,3.2,2.26,6.49,3.84,9.82.4-.42.74-.64.86-.95.86-2.16,1.68-4.33,2.5-6.5l3.65-9.66c.29-.74.63-1.46.91-2.11a46.05,46.05,0,0,1,9.82,0c.07.41.17.86.22,1.32s0,.8,0,1.2v60.83A6.8,6.8,0,0,1,343,430a32.36,32.36,0,0,1-9.35.16c-.6-.67-.39-1.51-.4-2.29q0-7.94,0-15.86c0-5.93,0-11.87,0-17.8a4,4,0,0,0-.38-2.44c-1.24.91-1.1,2.34-1.64,3.43s-.93,2.38-1.39,3.58-.89,2.23-1.32,3.35-.94,2.38-1.39,3.58a13.75,13.75,0,0,1-1.5,3.41c-.72-.12-.83-.63-1-1.05-1.38-3.59-2.71-7.2-4.09-10.78-.63-1.65-1.33-3.27-2-4.89-.08-.18-.31-.29-.59-.53a5.86,5.86,0,0,0-.26,2.65q0,13.83,0,27.65c0,2,0,4,0,6a17.16,17.16,0,0,1-.16,1.81,32.12,32.12,0,0,1-9.5.14,12.3,12.3,0,0,1-.27-1.32c-.05-.55,0-1.12,0-1.68q0-30.06,0-60.11C307.74,366,307.44,364.94,308.18,363.93Z" transform="translate(-286.71 -95.26)"/><path d="M393.18,363.91c3.45-.11,6.55-.11,9.78,0,2.51,6.41,4.94,12.75,7.48,19.05s4.79,12.53,7.59,19c.29-.54.51-.76.53-1,.05-.8,0-1.6,0-2.4q0-15.75,0-31.5c0-1,0-1.91.05-2.81,1.68-.54,6.77-.63,9.5-.19.07.41.18.86.22,1.32a12,12,0,0,1,0,1.2q0,30.42,0,60.83a6.63,6.63,0,0,1-.24,2.67,7.62,7.62,0,0,1-3.07.28c-1.12,0-2.24,0-3.37,0s-2-.06-3.18-.09c-2.77-6.24-4.93-12.61-7.5-18.81s-4.74-12.55-7.41-18.63c-.59-.06-.66.25-.67.57q0,1.08,0,2.16,0,15.87,0,31.74c0,.87,0,1.75-.06,2.67-1.64.7-3.25.33-4.81.38a24.12,24.12,0,0,1-4.63-.14,11,11,0,0,1-.3-1.42,15.7,15.7,0,0,1,0-1.68V367C393.08,366.08,393.14,365.13,393.18,363.91Z" transform="translate(-286.71 -95.26)"/><path d="M359.61,364.14a130.27,130.27,0,0,1,16.83-.09c1.45,7.24,2.33,14.62,3.57,21.94s2.13,14.59,3.31,21.86,2.32,14.7,3.36,22.1c-1.67.78-3.28.37-4.84.43s-3.19,0-4.74,0c-.88-1.43-.64-2.94-1-4.32s-.44-2.85-.67-4.27a17.77,17.77,0,0,0-.83-4.29,38.1,38.1,0,0,0-6.48-.19,49.78,49.78,0,0,0-6.37.12,3.51,3.51,0,0,0-.79,2.34c-.45,2.93-.87,5.86-1.33,8.79a12.62,12.62,0,0,1-.4,1.53,31.61,31.61,0,0,1-9.76-.05c.05-.74,0-1.53.16-2.3,1.3-8.15,2.66-16.28,3.93-24.44.78-5,1.45-10,2.19-15,.45-3,1-6,1.43-9,.66-4.28,1.3-8.56,2-12.84C359.3,365.65,359.47,364.87,359.61,364.14Zm3.57,43.46c.23.1.44.28.65.28q4,.06,7.92.06a6.31,6.31,0,0,0,1.2-.23,4,4,0,0,0,.13-1q-2.35-15.66-4.76-31.31c0-.11-.21-.19-.36-.31a3.07,3.07,0,0,0-.3.64q-2.3,15.56-4.58,31.12A2.76,2.76,0,0,0,363.18,407.6Z" transform="translate(-286.71 -95.26)"/><path d="M487.58,364.11a131.91,131.91,0,0,1,16.64,0,2.69,2.69,0,0,1,.33.6c.11.46.18.94.25,1.41,3.24,21.29,6.61,42.56,9.79,63.9-1.68.73-3.3.34-4.86.4s-3.19,0-4.79-.05c-.94-2.16-.91-4.35-1.26-6.46s-.55-4.26-1.11-6.4a37.65,37.65,0,0,0-6.52-.2c-2.16,0-4.32-.07-6.58.06-1.2,4.25-1.15,8.63-2.28,12.71a30.3,30.3,0,0,1-9.61,0,5.25,5.25,0,0,1,.09-2.58q1.18-7.73,2.39-15.44,1.26-8.07,2.5-16.15,1.57-10.21,3.13-20.43c.49-3.25,1-6.49,1.49-9.74C487.27,365.13,487.45,364.6,487.58,364.11Zm13.26,43.5a2.41,2.41,0,0,0,.14-.71q-2.31-15.56-4.66-31.1a9,9,0,0,0-.37-1.19,14.08,14.08,0,0,0-.42,1.45q-2.28,15.44-4.54,30.87a2.06,2.06,0,0,0,.15.74,3.2,3.2,0,0,0,.89.25q4.08,0,8.16,0A1.88,1.88,0,0,0,500.84,407.61Z" transform="translate(-286.71 -95.26)"/><path d="M382.23,197.16a6,6,0,0,1,.69.92A37.94,37.94,0,0,1,384,221a52.9,52.9,0,0,1-10.42,20.09,51.43,51.43,0,0,1-13.18,11.78,39.82,39.82,0,0,1-17.1,5.91,62.84,62.84,0,0,1-19.1-1.11,111.41,111.41,0,0,1-13.56-4.08,21.56,21.56,0,0,1-9.7-7.21c-2-2.51-3.9-5.07-5.89-7.59-1.68-2.13-3.43-4.21-5.11-6.35-.79-1-1.47-2.09-2.23-3.12a5,5,0,0,1-1-3.15c0-3.68,0-7.37,0-11a5.94,5.94,0,0,1,.53-2.56c1.91-4.15,3.8-8.3,5.71-12.44.22-.48.36-1.1,1.23-1.06a4.88,4.88,0,0,1,.27,1.08c0,2.24.13,4.5-.07,6.72-1,11.36,2.44,21.16,10.09,29.51a39.32,39.32,0,0,0,23.92,12.68,36.64,36.64,0,0,0,14.76-.91,65.77,65.77,0,0,0,18.23-7.86,61.5,61.5,0,0,0,13.28-11,24.36,24.36,0,0,0,5.71-12.74c.93-5.71,1.13-11.48,1.68-17.22C382.11,198.77,382.14,198.21,382.23,197.16Z" transform="translate(-286.71 -95.26)"/><path d="M391.28,241.12c.48-.21,1-.47,1.45-.64A33.47,33.47,0,0,1,405.07,239,35.75,35.75,0,0,1,415.44,241a53,53,0,0,1,7.14,3.41,65,65,0,0,1,15.21,11.25,48.62,48.62,0,0,1,8,9.84,16.67,16.67,0,0,1,2,5.61,98.44,98.44,0,0,1,1.53,24.41,56.16,56.16,0,0,1-4.25,18.16,17.3,17.3,0,0,1-1.14,2.12,47.92,47.92,0,0,1-11.29,12.34,49.78,49.78,0,0,1-14.37,8.11,23.86,23.86,0,0,1-16.49-.1c-3.91-1.43-7.76-3-11.64-4.51a2.14,2.14,0,0,1-.43-.21c-.35-.25-.61-.6-.4-1a1.64,1.64,0,0,1,.77-.79,3.6,3.6,0,0,1,1.43-.07c2.87.19,5.74.45,8.62.6a34.57,34.57,0,0,0,18.34-3.95c11.69-6.19,18.85-15.89,21.43-28.86a31.13,31.13,0,0,0-.2-13.38,76.59,76.59,0,0,0-8.11-21.24,48.16,48.16,0,0,0-9.72-12.14A29.75,29.75,0,0,0,404.85,243a26.94,26.94,0,0,0-6.47-.11,3,3,0,0,1-.95,0c-2-.4-4.07-.83-6.1-1.25Z" transform="translate(-286.71 -95.26)"/><path d="M435.28,235.87a8.2,8.2,0,0,1-.37-1.08,62.93,62.93,0,0,1-1.16-16,33.21,33.21,0,0,1,3.6-12.63A69.67,69.67,0,0,1,447,191.27a60.83,60.83,0,0,1,12.89-11.44,8.15,8.15,0,0,1,4-1.38c8.56-.46,17.11-1.18,25.69-1.1a87.67,87.67,0,0,1,8.88.39,30.1,30.1,0,0,1,16.37,6.87,47.15,47.15,0,0,1,8,8.87,144.65,144.65,0,0,1,7.75,12.71,11.93,11.93,0,0,1,1.55,5,25.18,25.18,0,0,1,.08,3.36,37.85,37.85,0,0,1-3.87,15.26c-.89,1.7-1.7,3.44-2.56,5.16a8.73,8.73,0,0,1-.83,1.46,1,1,0,0,1-.8.33,1,1,0,0,1-.56-.64,2,2,0,0,1,0-.95c.23-1.66.39-3.35.76-5,2.2-9.83.09-18.73-5.64-26.89a42.55,42.55,0,0,0-12.55-11.73,39.73,39.73,0,0,0-13.72-5.6,36,36,0,0,0-17.59.72,98.55,98.55,0,0,0-14.34,5.48,46.49,46.49,0,0,0-14.8,10.91,35.82,35.82,0,0,0-8.2,17.13,50.83,50.83,0,0,0-.73,8.36c-.05,1.84-.28,3.67-.45,5.5A2.2,2.2,0,0,1,435.28,235.87Z" transform="translate(-286.71 -95.26)"/><path d="M428.49,191.05a14.51,14.51,0,0,1-1.94.85,49.08,49.08,0,0,1-12.12,1.63,42.36,42.36,0,0,1-18.88-5,70.69,70.69,0,0,1-16.84-12.67,29.69,29.69,0,0,1-7.09-11.3,44.76,44.76,0,0,1-2.4-12.94c-.22-4.81-.44-9.61-.52-14.42-.17-10.4,3.73-19.18,10.88-26.62a74,74,0,0,1,14.07-11.17c.34-.22.68-.42,1-.66,4.62-3.42,9.77-4.13,15.29-3a26.55,26.55,0,0,1,6.16,2c2.89,1.38,5.75,2.81,8.62,4.24a11,11,0,0,1,1.15.77c-.22.21-.32.38-.43.39a21.2,21.2,0,0,1-7.41-.22c-7.72-1.88-14.66-.1-20.83,4.64a58.65,58.65,0,0,0-14.48,15.6,34.91,34.91,0,0,0-5.06,21.37,52.56,52.56,0,0,0,5.11,18.66,65.47,65.47,0,0,0,7.56,12.52c4.59,5.94,10.24,10.59,17.47,13a34.41,34.41,0,0,0,12.54,1.72c2.32-.1,4.64-.43,6.93.19C427.51,190.72,427.73,190.8,428.49,191.05Z" transform="translate(-286.71 -95.26)"/><path d="M316.33,459.5c-5.63,0-8.14-3.63-8.14-7.92s2.67-7.89,8.14-7.89a9.36,9.36,0,0,1,5.38,1.43l-.79,1.56s-1.4-1.24-4.59-1.24c-4,0-6.1,2.58-6.1,6.14,0,3.34,1.9,6.17,6.1,6.17a8.88,8.88,0,0,0,5.48-1.88l.66,1.56A9.68,9.68,0,0,1,316.33,459.5Z" transform="translate(-286.71 -95.26)"/><path d="M334.5,459.5c-5.47,0-8.14-3.47-8.14-7.86s2.54-7.95,8.11-7.95,8.15,3.66,8.15,7.95S339.91,459.5,334.5,459.5Zm6.08-7.86c0-3.34-1.88-6.2-6.11-6.2s-6.07,2.86-6.07,6.2c0,3.6,2.06,6.11,6.1,6.11S340.58,455.24,340.58,451.64Z" transform="translate(-286.71 -95.26)"/><path d="M349.11,445.85h-2.7l.51-1.72h2.19v-3.4c0-4,2.07-5.6,5.25-5.6a6.41,6.41,0,0,1,3.37.86l-.76,1.43a5.93,5.93,0,0,0-2.55-.48c-2.09,0-3.27,1.09-3.27,3.69v3.5h5.5v1.72h-5.5V459h-2Z" transform="translate(-286.71 -95.26)"/><path d="M362.29,445.85h-2.71l.51-1.72h2.2v-3.4c0-4,2.06-5.6,5.25-5.6a6.46,6.46,0,0,1,3.37.86l-.77,1.43a5.91,5.91,0,0,0-2.54-.48c-2.1,0-3.28,1.09-3.28,3.69v3.5h5.51v1.72h-5.51V459h-2Z" transform="translate(-286.71 -95.26)"/><path d="M381.19,457.75a8.83,8.83,0,0,0,5.47-1.88l.67,1.4a9.3,9.3,0,0,1-6.14,2.23c-5.6,0-8.15-3.63-8.15-7.92s2.58-7.89,7.86-7.89,7.1,3.69,7.1,6.78a6,6,0,0,1-.29,1.87h-12.6C375.4,455.4,377.27,457.75,381.19,457.75Zm4.86-7.41c0-2.9-1.75-4.9-5.15-4.9a5.38,5.38,0,0,0-5.79,5.28h10.94Z" transform="translate(-286.71 -95.26)"/><path d="M400.76,457.75a8.83,8.83,0,0,0,5.47-1.88l.67,1.4a9.3,9.3,0,0,1-6.14,2.23c-5.6,0-8.15-3.63-8.15-7.92s2.58-7.89,7.86-7.89,7.09,3.69,7.09,6.78a6.16,6.16,0,0,1-.28,1.87h-12.6C395,455.4,396.84,457.75,400.76,457.75Zm4.86-7.41c0-2.9-1.75-4.9-5.15-4.9a5.38,5.38,0,0,0-5.79,5.28h10.94Z" transform="translate(-286.71 -95.26)"/><path d="M429.14,445.44c-3.18,0-4.83,1.11-4.83,2.73,0,1.91,2.25,2.23,4.8,2.61,2.93.48,6.27,1.24,6.27,4.52,0,2.61-2.42,4.2-6.65,4.2-4.61,0-6.84-2-6.84-2l.76-1.59a10.08,10.08,0,0,0,6.08,1.84c2.93,0,4.61-1,4.61-2.45,0-1.78-1.94-2.23-4.26-2.61-3.06-.51-6.78-.95-6.78-4.52,0-2.22,1.88-4.48,6.84-4.48a10.89,10.89,0,0,1,6.08,1.53l-.83,1.49A10,10,0,0,0,429.14,445.44Z" transform="translate(-286.71 -95.26)"/><path d="M441,444.58l2-.64v2a7.39,7.39,0,0,1,5.44-2.29c5,0,7.39,3.4,7.39,8s-3,7.79-8.18,7.79a11.58,11.58,0,0,1-4.65-.95v8.84h-2Zm6.81,13.17c3.78,0,6-2.16,6-6s-1.78-6.27-5.66-6.27A7.33,7.33,0,0,0,443,447.6v9.07A9.53,9.53,0,0,0,447.76,457.75Z" transform="translate(-286.71 -95.26)"/><path d="M473.72,459.21c-1.33,0-2.1-.54-2.1-1.62v-.32a8.86,8.86,0,0,1-6.07,2.23c-3.12,0-5.29-1.24-5.29-3.82s2.26-4.13,8.28-4.13a14.23,14.23,0,0,1,3,.32v-3.15c0-2.26-1.34-3.28-4.74-3.28a16.15,16.15,0,0,0-5.12.89l-.48-1.66a19.91,19.91,0,0,1,6-1c4.14,0,6.33,1.59,6.33,4.61v8.46c0,.61.23.86.8.86a7.56,7.56,0,0,0,2.1-.47l.44,1.11A5.71,5.71,0,0,1,473.72,459.21Zm-5.18-6.07c-4.62,0-6.27,1-6.27,2.48s1.56,2.16,3.56,2.16a8.8,8.8,0,0,0,5.73-2.1v-2.32A22,22,0,0,0,468.54,453.14Z" transform="translate(-286.71 -95.26)"/><path d="M488.3,459.5c-5.63,0-8.15-3.63-8.15-7.92s2.68-7.89,8.15-7.89a9.3,9.3,0,0,1,5.37,1.43l-.79,1.56s-1.4-1.24-4.58-1.24c-4,0-6.11,2.58-6.11,6.14,0,3.34,1.91,6.17,6.11,6.17a8.83,8.83,0,0,0,5.47-1.88l.67,1.56A9.68,9.68,0,0,1,488.3,459.5Z" transform="translate(-286.71 -95.26)"/><path d="M506.47,457.75a8.83,8.83,0,0,0,5.47-1.88l.67,1.4a9.3,9.3,0,0,1-6.14,2.23c-5.6,0-8.15-3.63-8.15-7.92s2.58-7.89,7.86-7.89,7.1,3.69,7.1,6.78a6,6,0,0,1-.29,1.87h-12.6C500.68,455.4,502.56,457.75,506.47,457.75Zm4.87-7.41c0-2.9-1.75-4.9-5.16-4.9a5.38,5.38,0,0,0-5.79,5.28h10.95Z" transform="translate(-286.71 -95.26)"/></svg>